<svg width="22" height="22" viewBox="0 0 22 22" fill="none" xmlns="http://www.w3.org/2000/svg">
<path d="M11.4997 14.2854C11.3719 14.2854 11.2521 14.2653 11.1403 14.225C11.0285 14.1854 10.9247 14.1177 10.8289 14.0219L5.43826 8.63124C5.26257 8.45554 5.17887 8.23577 5.18718 7.9719C5.19484 7.70868 5.28652 7.48922 5.46222 7.31353C5.63791 7.13783 5.86152 7.04999 6.13305 7.04999C6.40458 7.04999 6.62819 7.13783 6.80389 7.31353L11.4997 12.0094L16.2195 7.28957C16.3952 7.11388 16.615 7.02986 16.8788 7.03753C17.1421 7.04583 17.3615 7.13783 17.5372 7.31353C17.7129 7.48922 17.8008 7.71283 17.8008 7.98436C17.8008 8.25589 17.7129 8.4795 17.5372 8.6552L12.1706 14.0219C12.0747 14.1177 11.9709 14.1854 11.8591 14.225C11.7473 14.2653 11.6275 14.2854 11.4997 14.2854Z" fill="#1B1B1B"/>
</svg>
