
<svg width="14" height="21" viewBox="0 0 14 21" fill="none" xmlns="http://www.w3.org/2000/svg">
<path d="M7.16699 3.9502C8.09542 3.95024 8.96869 4.12212 9.78613 4.46582L10.0869 4.60059C10.7783 4.92822 11.3889 5.34942 11.918 5.86523C12.5226 6.45472 13.0013 7.14804 13.3535 7.94434L13.4775 8.24609C13.748 8.95588 13.8838 9.70725 13.8838 10.5C13.8838 11.2928 13.748 12.0441 13.4775 12.7539L13.3535 13.0557C13.0013 13.852 12.5226 14.5453 11.918 15.1348C11.3888 15.6506 10.7783 16.0721 10.0869 16.3994L9.78613 16.5342C8.9687 16.8783 8.09541 17.0498 7.16699 17.0498C6.35455 17.0498 5.58395 16.9187 4.85645 16.6553L4.54688 16.5342C3.83232 16.2337 3.19884 15.8386 2.64648 15.3496L2.41504 15.1348C1.88578 14.6187 1.45308 14.0232 1.11719 13.3486L0.979492 13.0557C0.626334 12.2582 0.450195 11.4059 0.450195 10.5C0.450195 9.59414 0.626334 8.7418 0.979492 7.94434L1.11719 7.65137C1.45308 6.97682 1.88578 6.38126 2.41504 5.86523L2.64648 5.65039C3.19878 5.16137 3.83241 4.76666 4.54688 4.46582L4.85645 4.34473C5.584 4.08157 6.35449 3.9502 7.16699 3.9502ZM7.16699 5.34961C5.7934 5.34961 4.61233 5.79079 3.62207 6.67285L3.42676 6.85449C2.39722 7.85829 1.88379 9.07276 1.88379 10.5C1.88379 11.9272 2.39722 13.1417 3.42676 14.1455L3.62207 14.3271C4.61233 15.2092 5.7934 15.6504 7.16699 15.6504C8.6318 15.6503 9.87774 15.1488 10.9072 14.1455L11.0938 13.9541C11.9981 12.9884 12.4502 11.838 12.4502 10.5C12.4502 9.16199 11.9981 8.0116 11.0938 7.0459L10.9072 6.85449C9.87774 5.85123 8.6318 5.34968 7.16699 5.34961ZM7.16699 12.4004C7.31768 12.4004 7.45169 12.4374 7.56738 12.5127L7.67676 12.6006L7.76758 12.708C7.84476 12.821 7.88372 12.952 7.88379 13.0996C7.88379 13.2475 7.84501 13.3793 7.76758 13.4922L7.67676 13.5986C7.53894 13.733 7.36792 13.7997 7.16699 13.7998C7.01617 13.7998 6.88212 13.7621 6.7666 13.6865L6.65723 13.5986C6.51919 13.4645 6.4502 13.2968 6.4502 13.0996C6.45029 12.9026 6.51934 12.735 6.65723 12.6006L6.7666 12.5127C6.88209 12.4375 7.01627 12.4004 7.16699 12.4004ZM7.16699 7.2002C7.31711 7.20025 7.45082 7.23562 7.56641 7.30762L7.67578 7.39258L7.7666 7.49609C7.84428 7.60628 7.88379 7.73596 7.88379 7.88379V10.5C7.88379 10.6477 7.84483 10.7788 7.76758 10.8916L7.67676 10.999C7.53898 11.1332 7.36783 11.2001 7.16699 11.2002C7.01673 11.2002 6.88303 11.1639 6.76758 11.0918L6.6582 11.0078C6.51953 10.8787 6.45028 10.7137 6.4502 10.5166V7.90039C6.4502 7.7032 6.51925 7.53492 6.65723 7.40039L6.7666 7.3125C6.88207 7.2373 7.01631 7.2002 7.16699 7.2002Z" fill="#1B1B1B" stroke="#1B1B1B" stroke-width="0.1"/>
</svg>
